<?xml version="1.0" encoding="utf-8"?>
<!-- Generator: Adobe Illustrator 14.0.0, SVG Export Plug-In . SVG Version: 6.00 Build 43363)  -->
<!DOCTYPE svg PUBLIC "-//W3C//DTD SVG 1.1//EN" "http://www.w3.org/Graphics/SVG/1.1/DTD/svg11.dtd">
<svg version="1.1" id="Layer_1" xmlns="http://www.w3.org/2000/svg" xmlns:xlink="http://www.w3.org/1999/xlink" x="0px" y="0px"
	 width="301.485px" height="296.985px" viewBox="0 0 301.485 296.985" enable-background="new 0 0 301.485 296.985"
	 xml:space="preserve">
<g id="SL_x2B_R">
	<g id="Shiny_Logo">
		<g id="Logo">
			
				<rect id="Black-Outside" x="56.224" y="53.974" transform="matrix(0.7071 0.7071 -0.7071 0.7071 149.1522 -63.0986)" width="189.038" height="189.038"/>
			<linearGradient id="Yellow-Inside_1_" gradientUnits="userSpaceOnUse" x1="150.9927" y1="28.9009" x2="150.9927" y2="267.4126">
				<stop  offset="0" style="stop-color:#FFCE0A"/>
				<stop  offset="0.2593" style="stop-color:#FFCB0A"/>
				<stop  offset="0.4274" style="stop-color:#FFC30A"/>
				<stop  offset="0.5695" style="stop-color:#FFB40A"/>
				<stop  offset="0.6972" style="stop-color:#FF9F0A"/>
				<stop  offset="0.8151" style="stop-color:#FF830A"/>
				<stop  offset="0.9245" style="stop-color:#FF630A"/>
				<stop  offset="1" style="stop-color:#FF470A"/>
			</linearGradient>
			<polygon id="Yellow-Inside" fill="url(#Yellow-Inside_1_)" points="270.249,148.157 150.993,267.413 31.737,148.157 
				150.993,28.901 			"/>
			<g id="Smiley">
				<polygon points="115.493,101.413 125.993,101.413 123.118,164.538 118.118,164.538 				"/>
				<rect x="115.493" y="176.413" width="10.5" height="9"/>
				<rect x="144.993" y="139.163" width="26" height="8.5"/>
				<path d="M179.493,101.413c0,0,22,42.125,0,84c5.223,0,5.223,0,5.223,0s27.777-39.5,0.777-84
					C179.493,101.413,179.493,101.413,179.493,101.413z"/>
			</g>
		</g>
		<path id="Shine" opacity="0.35" fill="#FFFFFF" d="M150.993,117.413c33.519,0,65.7-2.361,95.65-6.689l-95.9-95.9L54.906,110.66
			C84.98,115.028,117.311,117.413,150.993,117.413z"/>
	</g>
</g>
</svg>
