<?xml version="1.0" standalone="no"?>
<!DOCTYPE svg PUBLIC "-//W3C//DTD SVG 20010904//EN"
 "http://www.w3.org/TR/2001/REC-SVG-20010904/DTD/svg10.dtd">
<svg version="1.0" xmlns="http://www.w3.org/2000/svg"
 width="512.000000pt" height="512.000000pt" viewBox="0 0 512.000000 512.000000"
 preserveAspectRatio="xMidYMid meet">
<metadata>
Created by potrace 1.11, written by Peter Selinger 2001-2013
</metadata>
<g transform="translate(0.000000,512.000000) scale(0.100000,-0.100000)"
fill="#000000" stroke="none">
<path d="M3400 4761 c-54 -17 -90 -43 -152 -110 -102 -110 -155 -236 -178
-421 -14 -117 5 -250 82 -590 41 -179 45 -338 10 -415 -47 -102 -152 -173
-239 -161 -46 6 -130 45 -228 106 -94 58 -323 175 -393 200 -81 30 -191 24
-306 -14 -101 -34 -156 -74 -192 -139 -25 -45 -29 -63 -29 -132 0 -70 4 -86
29 -129 16 -28 46 -68 67 -91 l38 -41 -48 -48 c-65 -64 -104 -141 -104 -209
-1 -81 35 -186 84 -241 23 -26 40 -48 38 -50 -2 -1 -30 -8 -61 -15 -141 -30
-236 -201 -193 -348 32 -109 61 -153 183 -271 108 -105 115 -114 97 -125 -27
-15 -398 -32 -685 -31 -253 1 -250 1 -505 68 -155 41 -286 55 -351 37 -96 -26
-148 -89 -149 -181 -1 -170 172 -240 960 -385 85 -16 212 -30 325 -36 102 -6
241 -17 310 -25 130 -15 142 -19 765 -234 220 -76 279 -85 555 -82 159 2 262
-1 295 -9 67 -15 182 -77 286 -155 107 -79 187 -117 261 -122 81 -6 123 4 165
41 125 109 651 764 713 887 62 123 74 258 31 355 -10 23 -70 102 -132 176
-207 244 -280 351 -325 477 -74 208 -126 300 -322 559 -109 146 -148 209 -206
342 -73 164 -122 306 -151 436 -14 66 -39 161 -54 210 -19 58 -33 133 -40 210
-6 66 -24 176 -41 245 -20 81 -34 167 -39 245 -9 142 -22 174 -84 204 -47 23
-50 23 -87 12z"/>
</g>
</svg>
