<?xml version="1.0" standalone="no"?>
<!DOCTYPE svg PUBLIC "-//W3C//DTD SVG 20010904//EN"
 "http://www.w3.org/TR/2001/REC-SVG-20010904/DTD/svg10.dtd">
<svg version="1.0" xmlns="http://www.w3.org/2000/svg"
 width="626.000000pt" height="626.000000pt" viewBox="0 0 626.000000 626.000000"
 preserveAspectRatio="xMidYMid meet">
<metadata>
Created by potrace 1.11, written by Peter Selinger 2001-2013
</metadata>
<g transform="translate(0.000000,626.000000) scale(0.100000,-0.100000)"
fill="#000000" stroke="none">
<path d="M2840 6235 c-224 -61 -394 -239 -434 -455 -11 -57 -17 -265 -25 -855
-6 -429 -11 -816 -11 -859 0 -44 -4 -76 -8 -70 -5 5 -39 99 -77 209 -318 934
-403 1167 -450 1236 -107 157 -306 259 -504 259 -98 0 -227 -31 -321 -78 -214
-105 -350 -359 -312 -580 10 -62 140 -443 679 -2002 177 -513 185 -537 174
-575 -50 -182 -64 -234 -76 -307 -9 -46 -18 -144 -21 -218 -30 -659 316 -1288
906 -1646 710 -430 1635 -380 2295 125 82 62 245 221 315 306 186 227 315 499
377 794 24 112 27 149 27 336 1 218 -5 277 -49 455 -22 89 -23 99 -9 150 8 30
14 78 14 106 0 88 -129 971 -149 1025 -79 208 -300 344 -526 325 -112 -9 -185
-36 -278 -103 l-48 -34 -45 39 c-52 47 -158 104 -231 125 -114 34 -295 30
-403 -8 l-40 -14 0 67 c0 37 7 444 15 904 15 935 16 910 -51 1039 -70 134
-188 234 -336 287 -62 22 -93 26 -208 29 -97 2 -150 -1 -190 -12z m328 -330
c61 -33 105 -84 128 -147 13 -36 14 -89 10 -343 -8 -434 -15 -868 -22 -1375
-5 -379 -8 -452 -22 -495 -13 -37 -17 -83 -16 -180 l1 -130 -101 0 c-117 -1
-208 -24 -321 -83 -93 -49 -218 -172 -271 -267 -21 -38 -108 -182 -192 -320
-197 -319 -408 -660 -490 -795 -35 -58 -67 -109 -72 -113 -13 -15 -18 62 -15
243 3 195 20 293 75 445 57 158 94 25 -396 1442 -240 698 -439 1289 -442 1314
-8 87 45 189 122 234 134 79 273 71 374 -21 41 -36 56 -60 80 -122 16 -42 174
-500 352 -1017 201 -583 333 -953 348 -974 54 -73 147 -79 253 -16 78 47 108
73 121 104 13 34 16 138 23 691 4 267 8 546 10 620 2 74 7 356 10 625 7 535 8
548 66 618 29 36 84 70 139 88 14 5 63 7 110 6 72 -3 93 -7 138 -32z m759
-2262 c-8 -7 -108 -5 -116 2 -2 3 24 5 59 5 35 0 60 -3 57 -7z m837 -7 c26 -8
62 -26 80 -40 64 -48 71 -76 141 -570 72 -512 72 -511 9 -585 -47 -54 -106
-81 -180 -81 -112 1 -188 56 -199 144 -15 115 -107 769 -123 878 -18 112 -18
118 0 152 23 46 78 86 136 102 62 17 80 17 136 0z m-959 -6 c15 -6 11 -8 -16
-7 -21 1 -35 5 -32 10 5 9 22 8 48 -3z m200 -11 c5 -5 -5 -4 -23 2 -17 6 -32
13 -32 16 0 7 43 -8 55 -18z m-265 8 c0 -2 -20 -18 -45 -37 -24 -18 -42 -37
-39 -42 3 -4 0 -8 -5 -8 -23 0 -9 20 35 55 45 33 54 39 54 32z m365 -97 c28
-45 40 -80 26 -80 -6 0 -11 7 -11 15 0 31 -24 66 -42 62 -12 -3 -18 1 -19 11
-2 32 -4 37 -14 37 -5 0 -9 -6 -7 -12 2 -7 -1 -13 -7 -13 -11 0 -9 19 3 38 10
17 38 -6 71 -58z m-408 24 c-3 -3 -12 -4 -19 -1 -8 3 -5 6 6 6 11 1 17 -2 13
-5z m-77 -56 c-5 -24 -6 -47 -3 -53 2 -5 -3 -1 -11 9 -16 20 -16 20 -17 0 0
-10 -3 -14 -5 -7 -5 10 31 93 40 93 2 0 0 -19 -4 -42z m27 17 c0 -8 -4 -12 -9
-9 -5 3 -6 10 -3 15 9 13 12 11 12 -6z m446 -25 c3 -11 1 -18 -4 -14 -5 3 -9
12 -9 20 0 20 7 17 13 -6z m60 -120 c4 -40 3 -57 -3 -44 -8 21 -13 63 -11 98
2 36 8 12 14 -54z m-558 50 c-2 -3 -6 -19 -9 -34 -8 -44 -16 -43 -16 1 0 28 4
40 15 40 8 0 12 -3 10 -7z m28 -35 c-3 -9 -8 -14 -10 -11 -3 3 -2 9 2 15 9 16
15 13 8 -4z m-29 -64 c-4 -17 -9 -30 -11 -27 -3 2 -2 19 2 36 9 41 17 33 9 -9z
m33 -58 c-2 -16 -4 -5 -4 22 0 28 2 40 4 28 2 -13 2 -35 0 -50z m-20 -22 c1
-32 4 -69 8 -81 4 -14 3 -20 -3 -17 -17 11 -24 157 -7 157 1 0 2 -26 2 -59z
m560 7 c-3 -8 -6 -5 -6 6 -1 11 2 17 5 13 3 -3 4 -12 1 -19z m-527 -38 c-6
-11 -13 -20 -16 -20 -2 0 0 9 6 20 6 11 13 20 16 20 2 0 0 -9 -6 -20z m544
-60 l5 -65 -14 65 c-17 80 -18 87 -6 75 5 -6 12 -39 15 -75z m-24 -47 c-11
-17 -11 -17 -6 0 3 10 6 24 7 30 0 9 2 9 5 0 3 -7 0 -20 -6 -30z m-522 14 c13
4 12 2 -3 -11 -11 -10 -14 -15 -7 -11 7 4 12 0 12 -9 0 -9 4 -16 10 -16 5 0 7
6 4 14 -3 7 2 16 12 20 13 5 14 4 6 -7 -9 -10 -8 -17 0 -25 7 -7 8 -12 4 -12
-5 0 -2 -8 5 -17 8 -10 -5 -3 -28 16 -28 21 -43 40 -42 54 0 12 3 17 5 10 3
-7 13 -9 22 -6z m82 -27 c0 -5 -2 -10 -4 -10 -3 0 -8 5 -11 10 -3 6 -1 10 4
10 6 0 11 -4 11 -10z m-12 -45 c-3 -3 -9 2 -12 12 -6 14 -5 15 5 6 7 -7 10
-15 7 -18z m497 -83 c-6 -15 -25 -7 -25 11 0 7 4 6 10 -3 8 -13 10 -13 10 2 0
9 -5 28 -11 42 -7 14 -8 33 -4 43 6 13 10 5 16 -32 5 -27 6 -56 4 -63z m-449
69 c-4 -5 -12 -8 -19 -5 -8 3 -13 -4 -13 -16 0 -13 5 -19 14 -15 7 2 10 1 7
-4 -3 -5 -1 -12 5 -16 6 -4 8 -11 5 -16 -7 -11 24 -7 45 6 13 8 13 7 1 -8 -11
-14 -11 -18 3 -23 9 -3 16 -11 16 -16 0 -7 -5 -6 -13 1 -14 11 -27 5 -27 -11
0 -5 5 -6 12 -2 7 5 8 3 3 -5 -8 -14 -21 -5 -27 17 -2 8 -20 32 -40 55 -35 39
-36 42 -20 58 13 13 20 14 31 5 12 -9 13 -7 7 9 -5 15 -4 17 5 8 6 -6 8 -16 5
-22z m464 -113 c0 -18 -2 -20 -9 -8 -6 8 -7 18 -5 22 9 14 14 9 14 -14z m-392
-30 c-2 -6 -12 -12 -21 -14 -9 -1 -15 2 -11 7 3 5 10 7 15 4 5 -4 9 -1 9 4 0
6 3 11 6 11 3 0 4 -5 2 -12z m401 -53 l0 -20 -9 20 c-5 11 -9 27 -9 35 -1 13
0 13 9 0 5 -8 9 -24 9 -35z m-405 14 c-3 -5 2 -20 11 -33 10 -16 13 -30 8 -40
-6 -10 -12 -1 -24 33 -13 38 -13 48 -3 48 7 0 11 -4 8 -8z m54 -69 c-2 -7 -10
1 -17 16 -12 27 -11 28 4 12 10 -9 16 -21 13 -28z m366 -70 l5 -75 -9 60 c-5
33 -12 71 -15 85 -4 17 -3 22 4 15 5 -5 12 -44 15 -85z m-370 10 c-16 -16 -37
6 -29 30 l7 22 15 -22 c9 -12 12 -25 7 -30z m23 -2 c-3 -8 -6 -5 -6 6 -1 11 2
17 5 13 3 -3 4 -12 1 -19z m-40 -50 c-3 -7 -5 -2 -5 12 0 14 2 19 5 13 2 -7 2
-19 0 -25z m20 0 c-3 -7 -5 -2 -5 12 0 14 2 19 5 13 2 -7 2 -19 0 -25z m2 -88
c1 -13 0 -13 -9 0 -5 8 -9 24 -9 35 l0 20 9 -20 c5 -11 9 -27 9 -35z m378 28
c-3 -8 -6 -5 -6 6 -1 11 2 17 5 13 3 -3 4 -12 1 -19z m13 -43 c0 -8 -4 -15
-10 -15 -5 0 -10 7 -10 15 0 8 5 15 10 15 6 0 10 -7 10 -15z m-385 -67 c3 -7
-1 -4 -9 6 -9 11 -16 29 -15 40 1 17 2 16 9 -6 4 -14 11 -32 15 -40z m394 -29
c1 -14 -6 -49 -15 -79 -11 -39 -18 -49 -25 -39 -12 20 -11 37 2 19 8 -11 9 -8
5 15 -5 24 -4 27 5 15 9 -12 10 -11 6 8 -3 12 -1 22 4 22 5 0 9 17 9 38 0 29
-3 34 -11 22 -9 -12 -10 -12 -5 3 3 10 6 26 7 35 1 24 17 -27 18 -59z m-422 9
c-3 -7 -5 -2 -5 12 0 14 2 19 5 13 2 -7 2 -19 0 -25z m10 -65 c-3 -10 -5 -2
-5 17 0 19 2 27 5 18 2 -10 2 -26 0 -35z m-20 15 c-3 -8 -6 -5 -6 6 -1 11 2
17 5 13 3 -3 4 -12 1 -19z m40 -10 c-3 -8 -6 -5 -6 6 -1 11 2 17 5 13 3 -3 4
-12 1 -19z m-51 -50 c-2 -24 -8 -42 -14 -41 -18 4 -23 -27 -5 -34 15 -6 14 -7
-3 -14 -17 -6 -16 -8 11 -20 17 -6 36 -11 44 -10 7 1 10 -2 6 -8 -9 -15 8 -14
25 1 8 7 8 5 -1 -5 -16 -18 -18 -18 -56 1 -62 32 -66 41 -38 97 14 27 25 54
25 62 0 7 2 13 4 13 2 0 3 -19 2 -42z m21 -10 c-3 -7 -5 -2 -5 12 0 14 2 19 5
13 2 -7 2 -19 0 -25z m355 -10 c-8 -8 -9 -4 -5 13 4 13 8 18 11 10 2 -7 -1
-18 -6 -23z m-7 -58 c-27 -29 -45 -31 -45 -7 0 7 4 6 10 -3 8 -13 10 -13 11 3
3 31 4 35 13 44 5 4 6 3 2 -4 -3 -6 -2 -14 3 -17 5 -4 13 4 17 16 4 15 9 18
12 10 2 -8 -8 -27 -23 -42z m-340 -28 c-3 -3 -11 0 -18 7 -9 10 -8 11 6 5 10
-3 15 -9 12 -12z m290 -12 c-8 -14 -65 -30 -65 -19 0 6 -6 7 -12 3 -9 -5 -9
-2 1 9 15 18 26 23 16 7 -3 -5 3 -10 13 -10 11 0 23 7 26 16 3 8 10 12 16 9 6
-4 8 -10 5 -15z m-102 -10 c-7 -8 -52 -7 -47 1 2 4 15 6 28 5 13 0 22 -3 19
-6z m-120 -27 c-7 -2 -19 -2 -25 0 -7 3 -2 5 12 5 14 0 19 -2 13 -5z m120 0
c-7 -2 -21 -2 -30 0 -10 3 -4 5 12 5 17 0 24 -2 18 -5z m-66 -9 c-3 -3 -12 -4
-19 -1 -8 3 -5 6 6 6 11 1 17 -2 13 -5z"/>
<path d="M4065 3550 c3 -5 11 -10 16 -10 6 0 7 5 4 10 -3 6 -11 10 -16 10 -6
0 -7 -4 -4 -10z"/>
<path d="M3773 2935 c0 -8 4 -12 9 -9 5 3 6 10 3 15 -9 13 -12 11 -12 -6z"/>
<path d="M3856 2737 c3 -10 9 -15 12 -12 3 3 0 11 -7 18 -10 9 -11 8 -5 -6z"/>
</g>
</svg>
